<svg xmlns="http://www.w3.org/2000/svg" viewBox="0 0 400 400">
  <defs>
    <!-- Original hellblaue Farbverläufe wie im Attachment -->
    <linearGradient id="lightBlueGradient" x1="0%" y1="0%" x2="100%" y2="100%">
      <stop offset="0%" style="stop-color:#87ceeb;stop-opacity:1" />
      <stop offset="50%" style="stop-color:#6fb3d2;stop-opacity:1" />
      <stop offset="100%" style="stop-color:#5a9fd4;stop-opacity:1" />
    </linearGradient>
    
    <!-- Grüner Farbverlauf -->
    <linearGradient id="greenGradient" x1="0%" y1="0%" x2="100%" y2="100%">
      <stop offset="0%" style="stop-color:#90c695;stop-opacity:1" />
      <stop offset="100%" style="stop-color:#7bb77f;stop-opacity:1" />
    </linearGradient>
    
    <!-- Blauer Bogen-Farbverlauf -->
    <linearGradient id="blueArcGradient" x1="0%" y1="0%" x2="100%" y2="100%">
      <stop offset="0%" style="stop-color:#87ceeb;stop-opacity:0.9" />
      <stop offset="100%" style="stop-color:#5a9fd4;stop-opacity:0.7" />
    </linearGradient>
    
    <!-- Grüner Bogen-Farbverlauf -->
    <linearGradient id="greenArcGradient" x1="0%" y1="0%" x2="100%" y2="100%">
      <stop offset="0%" style="stop-color:#90c695;stop-opacity:0.9" />
      <stop offset="100%" style="stop-color:#7bb77f;stop-opacity:0.7" />
    </linearGradient>
  </defs>
  
  <!-- Großer blauer Bogen (links) -->
  <path d="M 80 320 Q 80 80 200 80" fill="none" stroke="url(#blueArcGradient)" stroke-width="24" stroke-linecap="round"/>
  
  <!-- Grüner Bogen (rechts) -->
  <path d="M 320 320 Q 320 80 200 80" fill="none" stroke="url(#greenArcGradient)" stroke-width="24" stroke-linecap="round"/>
  
  <!-- Gebäude-Komplex in der Mitte -->
  <g transform="translate(200,200)">
    
    <!-- Hauptgebäude (links, das größte) -->
    <g fill="url(#lightBlueGradient)">
      <!-- Basis des Hauptgebäudes -->
      <polygon points="-80,80 -80,-60 -30,-70 -30,80"/>
      
      <!-- Horizontale weiße Streifen (Stockwerke) -->
      <rect x="-75" y="-50" width="40" height="6" fill="white" opacity="0.95"/>
      <rect x="-75" y="-35" width="40" height="6" fill="white" opacity="0.95"/>
      <rect x="-75" y="-20" width="40" height="6" fill="white" opacity="0.95"/>
      <rect x="-75" y="-5" width="40" height="6" fill="white" opacity="0.95"/>
      <rect x="-75" y="10" width="40" height="6" fill="white" opacity="0.95"/>
      <rect x="-75" y="25" width="40" height="6" fill="white" opacity="0.95"/>
      <rect x="-75" y="40" width="40" height="6" fill="white" opacity="0.95"/>
      <rect x="-75" y="55" width="40" height="6" fill="white" opacity="0.95"/>
    </g>
    
    <!-- Mittleres Gebäude -->
    <g fill="url(#lightBlueGradient)">
      <!-- Basis des mittleren Gebäudes -->
      <polygon points="-20,80 -20,-40 20,-50 20,80"/>
      
      <!-- Horizontale weiße Streifen -->
      <rect x="-18" y="-30" width="35" height="5" fill="white" opacity="0.95"/>
      <rect x="-18" y="-18" width="35" height="5" fill="white" opacity="0.95"/>
      <rect x="-18" y="-6" width="35" height="5" fill="white" opacity="0.95"/>
      <rect x="-18" y="6" width="35" height="5" fill="white" opacity="0.95"/>
      <rect x="-18" y="18" width="35" height="5" fill="white" opacity="0.95"/>
      <rect x="-18" y="30" width="35" height="5" fill="white" opacity="0.95"/>
      <rect x="-18" y="42" width="35" height="5" fill="white" opacity="0.95"/>
      <rect x="-18" y="54" width="35" height="5" fill="white" opacity="0.95"/>
      <rect x="-18" y="66" width="35" height="5" fill="white" opacity="0.95"/>
    </g>
    
    <!-- Kleines grünes Gebäude (rechts) -->
    <g fill="url(#greenGradient)">
      <!-- Basis des kleinen Gebäudes -->
      <polygon points="30,80 30,20 55,15 55,80"/>
      
      <!-- Horizontale weiße Streifen -->
      <rect x="32" y="25" width="20" height="4" fill="white" opacity="0.95"/>
      <rect x="32" y="35" width="20" height="4" fill="white" opacity="0.95"/>
      <rect x="32" y="45" width="20" height="4" fill="white" opacity="0.95"/>
      <rect x="32" y="55" width="20" height="4" fill="white" opacity="0.95"/>
      <rect x="32" y="65" width="20" height="4" fill="white" opacity="0.95"/>
    </g>
    
    <!-- Große Basis/Fundament (weiß) -->
    <rect x="-85" y="75" width="145" height="15" fill="white" opacity="0.9"/>
  </g>
</svg>
