<svg xmlns="http://www.w3.org/2000/svg" viewBox="0 0 400 400">
  <defs>
    <!-- Dunkleres Blau-Gradient -->
    <linearGradient id="blueGradient" x1="0%" y1="0%" x2="100%" y2="100%">
      <stop offset="0%" style="stop-color:#1e40af;stop-opacity:1" />
      <stop offset="100%" style="stop-color:#1d4ed8;stop-opacity:1" />
    </linearGradient>
    <!-- Grün-Gradient -->
    <linearGradient id="greenGradient" x1="0%" y1="0%" x2="100%" y2="100%">
      <stop offset="0%" style="stop-color:#10b981;stop-opacity:1" />
      <stop offset="100%" style="stop-color:#059669;stop-opacity:1" />
    </linearGradient>
  </defs>
  
  <!-- Äußerer Kreis/Ring -->
  <circle cx="200" cy="200" r="180" fill="none" stroke="url(#blueGradient)" stroke-width="12" opacity="0.8"/>
  
  <!-- Gebäude-Komplex -->
  <g transform="translate(200,200)">
    <!-- Hauptgebäude (links, groß) -->
    <g fill="url(#blueGradient)">
      <!-- Basis des Hauptgebäudes -->
      <polygon points="-120,80 -120,-100 -40,-120 -40,80" />
      
      <!-- Fenster-Reihen im Hauptgebäude -->
      <rect x="-110" y="-90" width="18" height="12" fill="white" opacity="0.9"/>
      <rect x="-85" y="-90" width="18" height="12" fill="white" opacity="0.9"/>
      <rect x="-60" y="-90" width="15" height="12" fill="white" opacity="0.9"/>
      
      <rect x="-110" y="-70" width="18" height="12" fill="white" opacity="0.9"/>
      <rect x="-85" y="-70" width="18" height="12" fill="white" opacity="0.9"/>
      <rect x="-60" y="-70" width="15" height="12" fill="white" opacity="0.9"/>
      
      <rect x="-110" y="-50" width="18" height="12" fill="white" opacity="0.9"/>
      <rect x="-85" y="-50" width="18" height="12" fill="white" opacity="0.9"/>
      <rect x="-60" y="-50" width="15" height="12" fill="white" opacity="0.9"/>
      
      <rect x="-110" y="-30" width="18" height="12" fill="white" opacity="0.9"/>
      <rect x="-85" y="-30" width="18" height="12" fill="white" opacity="0.9"/>
      <rect x="-60" y="-30" width="15" height="12" fill="white" opacity="0.9"/>
      
      <rect x="-110" y="-10" width="18" height="12" fill="white" opacity="0.9"/>
      <rect x="-85" y="-10" width="18" height="12" fill="white" opacity="0.9"/>
      <rect x="-60" y="-10" width="15" height="12" fill="white" opacity="0.9"/>
      
      <rect x="-110" y="10" width="18" height="12" fill="white" opacity="0.9"/>
      <rect x="-85" y="10" width="18" height="12" fill="white" opacity="0.9"/>
      <rect x="-60" y="10" width="15" height="12" fill="white" opacity="0.9"/>
      
      <rect x="-110" y="30" width="18" height="12" fill="white" opacity="0.9"/>
      <rect x="-85" y="30" width="18" height="12" fill="white" opacity="0.9"/>
      <rect x="-60" y="30" width="15" height="12" fill="white" opacity="0.9"/>
      
      <rect x="-110" y="50" width="18" height="12" fill="white" opacity="0.9"/>
      <rect x="-85" y="50" width="18" height="12" fill="white" opacity="0.9"/>
      <rect x="-60" y="50" width="15" height="12" fill="white" opacity="0.9"/>
    </g>
    
    <!-- Mittleres Gebäude -->
    <g fill="url(#blueGradient)">
      <!-- Basis des mittleren Gebäudes -->
      <polygon points="-20,80 -20,-60 30,-80 30,80" />
      
      <!-- Fenster im mittleren Gebäude -->
      <rect x="-15" y="-50" width="12" height="10" fill="white" opacity="0.9"/>
      <rect x="5" y="-50" width="12" height="10" fill="white" opacity="0.9"/>
      <rect x="20" y="-50" width="8" height="10" fill="white" opacity="0.9"/>
      
      <rect x="-15" y="-35" width="12" height="10" fill="white" opacity="0.9"/>
      <rect x="5" y="-35" width="12" height="10" fill="white" opacity="0.9"/>
      <rect x="20" y="-35" width="8" height="10" fill="white" opacity="0.9"/>
      
      <rect x="-15" y="-20" width="12" height="10" fill="white" opacity="0.9"/>
      <rect x="5" y="-20" width="12" height="10" fill="white" opacity="0.9"/>
      <rect x="20" y="-20" width="8" height="10" fill="white" opacity="0.9"/>
      
      <rect x="-15" y="-5" width="12" height="10" fill="white" opacity="0.9"/>
      <rect x="5" y="-5" width="12" height="10" fill="white" opacity="0.9"/>
      <rect x="20" y="-5" width="8" height="10" fill="white" opacity="0.9"/>
      
      <rect x="-15" y="10" width="12" height="10" fill="white" opacity="0.9"/>
      <rect x="5" y="10" width="12" height="10" fill="white" opacity="0.9"/>
      <rect x="20" y="10" width="8" height="10" fill="white" opacity="0.9"/>
      
      <rect x="-15" y="25" width="12" height="10" fill="white" opacity="0.9"/>
      <rect x="5" y="25" width="12" height="10" fill="white" opacity="0.9"/>
      <rect x="20" y="25" width="8" height="10" fill="white" opacity="0.9"/>
      
      <rect x="-15" y="40" width="12" height="10" fill="white" opacity="0.9"/>
      <rect x="5" y="40" width="12" height="10" fill="white" opacity="0.9"/>
      <rect x="20" y="40" width="8" height="10" fill="white" opacity="0.9"/>
      
      <rect x="-15" y="55" width="12" height="10" fill="white" opacity="0.9"/>
      <rect x="5" y="55" width="12" height="10" fill="white" opacity="0.9"/>
      <rect x="20" y="55" width="8" height="10" fill="white" opacity="0.9"/>
    </g>
    
    <!-- Kleines grünes Gebäude (rechts) -->
    <g fill="url(#greenGradient)">
      <!-- Basis des kleinen Gebäudes -->
      <polygon points="50,80 50,30 80,20 80,80" />
      
      <!-- Fenster im kleinen Gebäude -->
      <rect x="55" y="35" width="8" height="8" fill="white" opacity="0.9"/>
      <rect x="67" y="35" width="8" height="8" fill="white" opacity="0.9"/>
      
      <rect x="55" y="47" width="8" height="8" fill="white" opacity="0.9"/>
      <rect x="67" y="47" width="8" height="8" fill="white" opacity="0.9"/>
      
      <rect x="55" y="59" width="8" height="8" fill="white" opacity="0.9"/>
      <rect x="67" y="59" width="8" height="8" fill="white" opacity="0.9"/>
    </g>
  </g>
  
  <!-- Dekorative Bögen (blau und grün) -->
  <path d="M 60 200 Q 60 120 140 120" fill="none" stroke="url(#blueGradient)" stroke-width="16" opacity="0.6"/>
  <path d="M 340 200 Q 340 120 260 120" fill="none" stroke="url(#greenGradient)" stroke-width="16" opacity="0.6"/>
</svg>
